<?xml version="1.0" encoding="UTF-8" standalone="no"?>
<!-- Created with Inkscape (http://www.inkscape.org/) -->

<svg
   xmlns:dc="http://purl.org/dc/elements/1.1/"
   xmlns:cc="http://creativecommons.org/ns#"
   xmlns:rdf="http://www.w3.org/1999/02/22-rdf-syntax-ns#"
   xmlns:svg="http://www.w3.org/2000/svg"
   xmlns="http://www.w3.org/2000/svg"
   xmlns:sodipodi="http://sodipodi.sourceforge.net/DTD/sodipodi-0.dtd"
   xmlns:inkscape="http://www.inkscape.org/namespaces/inkscape"
   width="120mm"
   height="120mm"
   viewBox="0 0 120 120"
   version="1.1"
   id="svg8"
   inkscape:version="0.92.2 5c3e80d, 2017-08-06"
   sodipodi:docname="low_floor.svg">
  <defs
     id="defs2" />
  <sodipodi:namedview
     id="base"
     pagecolor="#ffffff"
     bordercolor="#666666"
     borderopacity="1.0"
     inkscape:pageopacity="0.0"
     inkscape:pageshadow="2"
     inkscape:zoom="0.7"
     inkscape:cx="249.28691"
     inkscape:cy="250.16946"
     inkscape:document-units="mm"
     inkscape:current-layer="layer1"
     showgrid="false"
     fit-margin-top="0"
     fit-margin-left="0"
     fit-margin-right="0"
     fit-margin-bottom="0"
     inkscape:window-width="1368"
     inkscape:window-height="744"
     inkscape:window-x="0"
     inkscape:window-y="24"
     inkscape:window-maximized="0" />
  <metadata
     id="metadata5">
    <rdf:RDF>
      <cc:Work
         rdf:about="">
        <dc:format>image/svg+xml</dc:format>
        <dc:type
           rdf:resource="http://purl.org/dc/dcmitype/StillImage" />
        <dc:title></dc:title>
        <dc:creator>
          <cc:Agent>
            <dc:title>Igor Bredikhin</dc:title>
          </cc:Agent>
        </dc:creator>
        <dc:rights>
          <cc:Agent>
            <dc:title>CC-BY</dc:title>
          </cc:Agent>
        </dc:rights>
        <dc:source>https://commons.wikimedia.org/wiki/File:Short-haired-Dachshund.jpg</dc:source>
      </cc:Work>
    </rdf:RDF>
  </metadata>
  <g
     inkscape:label="Layer 1"
     inkscape:groupmode="layer"
     id="layer1"
     transform="translate(-38.883767,-1.5298379)">
    <path
       style="fill:#000000;stroke-width:0.26458332"
       d="m 73.864398,95.769338 c -2.557616,-0.26414 -2.762808,-0.35077 -3.176582,-1.34107 -0.534754,-1.27985 -0.519774,-1.34249 0.464603,-1.94268 0.681096,-0.41527 1.333863,-0.52449 3.139318,-0.52528 1.904455,-7.9e-4 2.394104,-0.0912 2.976563,-0.54936 0.383426,-0.3016 0.69714,-0.69451 0.69714,-0.87312 0,-0.17862 0.139049,-0.4638 0.309001,-0.63376 0.751369,-0.75137 1.279329,-3.48053 0.811427,-4.19447 -0.106913,-0.16313 -0.951513,-0.67742 -1.876888,-1.14286 -0.925377,-0.46544 -2.263608,-1.2547 -2.97385,-1.75392 -0.71024,-0.49921 -1.401577,-0.90766 -1.536306,-0.90766 -0.134726,0 -1.475399,-1.17571 -2.979274,-2.61268 -2.802324,-2.67766 -3.830987,-4.2257 -5.208519,-7.83837 -0.604099,-1.58428 -0.789112,-4.84837 -0.463846,-8.18341 0.22461,-2.303 -0.0241,-5.174173 -0.689218,-7.956173 -0.139163,-0.58208 -0.289849,-1.37155 -0.334857,-1.75437 -0.07973,-0.67815 -0.444336,-1.92831 -1.031632,-3.5373 -0.15935,-0.43656 -0.258355,-0.93487 -0.220009,-1.10735 0.03835,-0.17249 -0.345797,-0.96317 -0.853649,-1.75707 -0.818477,-1.27949 -1.067313,-1.47749 -2.19048,-1.74302 -1.538223,-0.36365 -8.161558,-0.21248 -9.866066,0.22519 -1.144864,0.29397 -1.777528,0.22133 -5.16742,-0.59329 -0.712691,-0.17126 -2.493051,-1.92196 -2.922089,-2.87339 l -0.480002,-1.06446 1.549948,-1.43106 c 0.852472,-0.78709 1.609262,-1.37175 1.681755,-1.29926 0.07249,0.0725 0.499484,-0.1464 0.948869,-0.48644 0.449386,-0.34003 1.173586,-0.70622 1.609335,-0.81375 0.435748,-0.10753 0.942986,-0.3206 1.127195,-0.47348 0.184209,-0.15288 1.192549,-0.70885 2.240754,-1.2355 1.54945,-0.77848 2.188482,-1.30727 3.417393,-2.82784 1.418204,-1.75479 1.69606,-1.95685 4.498647,-3.27142 2.137588,-1.00265 3.422285,-1.44058 4.51739,-1.53988 0.841669,-0.0763 1.530308,-0.24129 1.530308,-0.3666 0,-0.12531 0.178594,-0.22783 0.396875,-0.22783 0.218281,0 0.396875,0.1024 0.396875,0.22756 0,0.12517 0.638495,0.29347 1.418878,0.37401 1.674143,0.17279 3.859274,1.21037 4.640437,2.20346 0.305398,0.38825 0.555268,0.61575 0.555268,0.50554 0,-0.5813 0.767948,0.5537 0.943996,1.39521 0.113083,0.54052 0.229717,1.07205 0.259189,1.1812 0.02947,0.10914 0.06847,0.30011 0.08666,0.42438 0.01818,0.12427 0.330729,0.54713 0.694531,0.93967 0.363802,0.39255 0.661458,0.83364 0.661458,0.9802 0,0.23774 1.47071,2.28196 1.882569,2.61668 0.08953,0.0728 0.252648,0.42995 0.362495,0.79375 0.247478,0.81964 1.54722,3.47932 2.392013,4.89479 0.3474,0.58209 0.636802,1.35712 0.643115,1.7223 0.0063,0.368 0.247345,0.81126 0.540641,0.99443 0.375322,0.23439 0.529675,0.61827 0.530911,1.32041 0.0011,0.54447 0.238299,1.34713 0.527423,1.7837 0.289123,0.43656 0.526465,0.95326 0.527423,1.14821 0.0021,0.43165 1.052184,1.34437 1.560652,1.35653 0.202555,0.005 1.097849,0.46956 1.989542,1.03272 0.891691,0.56315 2.035652,1.10932 2.542133,1.21371 0.506481,0.10439 1.397124,0.39792 1.979207,0.65228 1.209157,0.52838 4.616257,1.67805 6.753217,2.27876 1.39789,0.39295 4.970975,0.78292 9.386375,1.02444 10.84152,0.593023 14.547,0.735713 21.43123,0.825263 10.5136,0.13676 14.02834,0.45259 16.21204,1.45679 3.15511,1.45092 5.73868,4.88218 6.56776,8.72266 0.20418,0.94583 0.37124,1.92511 0.37124,2.17618 0,0.47524 1.21319,3.36317 2.08683,4.96762 0.55411,1.01761 1.67763,1.80276 2.62267,1.83279 0.85893,0.0273 2.02863,0.68262 2.667,1.49417 0.60831,0.77334 0.57628,2.0588 -0.11159,4.4783 -0.49243,1.73207 -0.55693,4.8121 -0.1512,7.21993 0.3073,1.82367 0.29181,1.99894 -0.28553,3.23114 l -0.61047,1.30287 -1.78593,-0.037 c -1.01633,-0.021 -1.78594,-0.15354 -1.78594,-0.30749 0,-0.15823 -0.1318,-0.13873 -0.3175,0.047 -0.45417,0.45417 -2.45914,0.40062 -2.8549,-0.0763 -0.26458,-0.3188 -0.24586,-0.4248 0.0984,-0.55689 0.23384,-0.0897 0.35706,-0.27333 0.27382,-0.40801 -0.0832,-0.13467 0.51888,-0.92583 1.33802,-1.75814 1.12053,-1.13855 1.45062,-1.64435 1.33298,-2.04252 -0.086,-0.29108 -0.21581,-1.77665 -0.28846,-3.30127 -0.11233,-2.35734 -0.21661,-2.862 -0.69708,-3.37343 -0.31075,-0.33078 -0.76161,-0.60141 -1.00192,-0.60141 -0.53216,0 -1.46054,0.97258 -1.70843,1.78978 -0.1,0.32953 -0.28864,0.53309 -0.41928,0.45235 -0.30722,-0.18987 -1.02403,1.52434 -1.02865,2.45996 -0.006,1.14617 -0.31881,3.08321 -0.53601,3.31557 -0.3797,0.40623 -2.36153,0.434 -3.11002,0.0436 -0.40603,-0.21179 -1.05863,-0.38581 -1.45022,-0.38671 -0.3916,-7.9e-4 -0.77574,-0.10478 -0.85366,-0.23085 -0.16257,-0.26304 0.62933,-1.04055 1.50132,-1.47405 0.53444,-0.26569 0.60126,-0.51813 0.67156,-2.53703 0.0429,-1.23309 0.016,-2.48946 -0.0598,-2.79194 -0.21662,-0.86409 -1.29118,-1.16984 -4.11146,-1.16984 -2.37147,0 -2.68278,-0.0587 -3.36694,-0.63433 -0.94174,-0.79242 -2.72954,-1.73365 -3.85469,-2.0294 -0.47081,-0.12375 -1.51085,-0.41083 -2.31122,-0.63794 -1.53167,-0.43464 -7.42003,-0.51354 -8.20207,-0.1099 -0.21828,0.11266 -1.40891,0.3295 -2.64583,0.48187 -3.74098,0.46083 -6.7161,1.05976 -8.76808,1.76513 -1.07115,0.3682 -2.47064,0.78046 -3.10998,0.91612 -0.63933,0.13565 -1.29418,0.35473 -1.45521,0.48683 -0.16102,0.1321 -2.79309,0.91595 -5.849025,1.74188 -3.05594,0.82594 -6.09204,1.66293 -6.74688,1.85998 -0.654842,0.19706 -1.845467,0.48679 -2.645832,0.64386 -0.800364,0.15706 -1.842161,0.48963 -2.315104,0.73903 -0.851799,0.44919 -0.860007,0.47219 -0.871571,2.44381 -0.0064,1.09469 -0.167842,2.58336 -0.358709,3.30815 -0.311211,1.18178 -0.439719,1.33811 -1.245092,1.51471 -1.052701,0.23084 -9.938213,0.47543 -11.481398,0.31605 z"
       id="path4515"
       inkscape:connector-curvature="0" />
  </g>
</svg>
