<?xml version="1.0" encoding="UTF-8" standalone="no"?>
<svg
   xmlns:dc="http://purl.org/dc/elements/1.1/"
   xmlns:cc="http://creativecommons.org/ns#"
   xmlns:rdf="http://www.w3.org/1999/02/22-rdf-syntax-ns#"
   xmlns:svg="http://www.w3.org/2000/svg"
   xmlns="http://www.w3.org/2000/svg"
   xmlns:sodipodi="http://sodipodi.sourceforge.net/DTD/sodipodi-0.dtd"
   xmlns:inkscape="http://www.inkscape.org/namespaces/inkscape"
   id="svg6"
   version="1.1"
   width="24"
   viewBox="0 0 24 24"
   height="24"
   fill="#000000"
   sodipodi:docname="vm.svg"
   inkscape:version="0.92.1 r">
  <sodipodi:namedview
     pagecolor="#ffffff"
     bordercolor="#666666"
     borderopacity="1"
     objecttolerance="10"
     gridtolerance="10"
     guidetolerance="10"
     inkscape:pageopacity="0"
     inkscape:pageshadow="2"
     inkscape:window-width="1368"
     inkscape:window-height="744"
     id="namedview64"
     showgrid="false"
     inkscape:zoom="21.166667"
     inkscape:cx="12"
     inkscape:cy="12"
     inkscape:window-x="0"
     inkscape:window-y="24"
     inkscape:window-maximized="0"
     inkscape:current-layer="svg6" />
  <metadata
     id="metadata12">
    <rdf:RDF>
      <cc:Work
         rdf:about="">
        <dc:format>image/svg+xml</dc:format>
        <dc:type
           rdf:resource="http://purl.org/dc/dcmitype/StillImage" />
        <dc:title />
      </cc:Work>
    </rdf:RDF>
  </metadata>
  <defs
     id="defs10" />
  <path
     id="path2"
     fill="none"
     d="M0 0h24v24H0z" />
  <path
     d="M 12 4 C 9.11 4 6.5996094 5.6390625 5.3496094 8.0390625 C 2.3396094 8.3590625 -1.1842379e-15 10.91 0 14 C 0 17.31 2.69 20 6 20 L 19 20 C 21.76 20 24 17.76 24 15 C 24 12.36 21.949609 10.219062 19.349609 10.039062 C 18.669609 6.5890625 15.64 4 12 4 z M 4.4042969 10.652344 L 5.921875 10.652344 L 7.4179688 15.642578 L 8.921875 10.652344 L 10.443359 10.652344 L 8.1328125 17.289062 L 6.7070312 17.289062 L 4.4042969 10.652344 z M 11.072266 10.652344 L 12.859375 10.652344 L 14.5625 15.464844 L 16.257812 10.652344 L 18.054688 10.652344 L 18.054688 17.289062 L 16.681641 17.289062 L 16.681641 15.474609 L 16.818359 12.34375 L 15.027344 17.289062 L 14.089844 17.289062 L 12.302734 12.347656 L 12.439453 15.474609 L 12.439453 17.289062 L 11.072266 17.289062 L 11.072266 10.652344 z "
     id="path4" />
</svg>
